# xmcd CD database file
#
# Track frame offsets:
#	182
#	18530
#	39197
#	53982
#	87790
#	105402
#	116020
#	142432
#	162620
#	183692
#	198287
#	222915
#	244002
#	262305
#	283185
#	300457
#
# Disc length: 4321 seconds
#
# Revision: 1
# Processed by: cddbd v1.5.1PL2 Copyright (c) Steve Scherf et al.
# Submitted via: CDex 1.50beta10
#
DISCID=f210df10
DTITLE=Calvin Russell - This Is My Life
DYEAR=1997
DGENRE=Country
TTITLE0=This Is My Life
TTITLE1=Crack In Time
TTITLE2=Big Brother
TTITLE3=Crossroads
TTITLE4=One Meat Ball
TTITLE5=Baby I Love You
TTITLE6=Soldier
TTITLE7=Rats And Roaches
TTITLE8=This Is Your World
TTITLE9=Don't Turn Your Head
TTITLE10=Trouble
TTITLE11=Valley Far Below
TTITLE12=Texas Song
TTITLE13=Let The Music Play
TTITLE14=It's All Over Now
TTITLE15=Forever Young
EXTD=(c) 1997 Sony Music: COL 488772 2.\n\nProduced by Joe Gracey (1-6), Jim Dickinson (7-9, 13-14), Calvin Russell\nand Mike Stewart (10-12), Stanley Kimberlin (15-16) YEAR: 1997
EXTT0=
EXTT1=
EXTT2=
EXTT3=written by Saylor White
EXTT4=
EXTT5=
EXTT6=
EXTT7=
EXTT8=
EXTT9=
EXTT10=
EXTT11=
EXTT12=
EXTT13=
EXTT14=
EXTT15=
PLAYORDER=
